<svg width="103.000000" height="32.000000" viewBox="0 0 103 32" fill="none" xmlns="http://www.w3.org/2000/svg" xmlns:xlink="http://www.w3.org/1999/xlink">
	<desc>
			Created with Pixso.
	</desc>
	<defs>
		<clipPath id="clip8_628">
			<rect id="Amazon Logo" width="103.000000" height="32.000000" fill="white" fill-opacity="0"/>
		</clipPath>
	</defs>
	<rect id="Amazon Logo" width="103.000000" height="32.000000" fill="#FFFFFF" fill-opacity="0"/>
	<g clip-path="url(#clip8_628)">
		<path id="path8" d="M63.8992 25.0249C57.9136 29.5732 49.238 32 41.7684 32C31.2949 32 21.8661 28.0063 14.7328 21.364C14.1724 20.8418 14.6746 20.1299 15.347 20.5366C23.0453 25.1543 32.5637 27.9324 42.3961 27.9324C49.0272 27.9324 56.3219 26.5178 63.0293 23.5828C64.0426 23.1389 64.89 24.2668 63.8992 25.0249Z" fill="#FF9900" fill-opacity="1.000000" fill-rule="evenodd"/>
		<path id="path10" d="M66.3878 22.0898C65.6256 21.082 61.3304 21.6138 59.4025 21.8494C58.8152 21.9233 58.7255 21.3965 59.2545 21.0173C62.6754 18.5352 68.2888 19.2517 68.9434 20.0837C69.598 20.9204 68.7731 26.7212 65.5583 29.49C65.0652 29.9153 64.5944 29.6887 64.8141 29.1248C65.5359 27.2666 67.1545 23.1021 66.3878 22.0898Z" fill="#FF9900" fill-opacity="1.000000" fill-rule="evenodd"/>
		<path id="path12" d="M59.5369 3.49438L59.5369 1.08154C59.5369 0.716309 59.8059 0.471436 60.1287 0.471436L70.6067 0.471436C70.943 0.471436 71.2119 0.720947 71.2119 1.08154L71.2119 3.14771C71.2075 3.49438 70.925 3.94727 70.4229 4.66382L64.9933 12.6558C67.0109 12.605 69.1406 12.9146 70.9698 13.9778C71.3823 14.218 71.4944 14.5693 71.5258 14.916L71.5258 17.4907C71.5258 17.842 71.1492 18.2534 70.7546 18.0408C67.531 16.2981 63.2493 16.1086 59.6848 18.0591C59.3217 18.2625 58.9406 17.8557 58.9406 17.5044L58.9406 15.0593C58.9406 14.6665 58.9451 13.9961 59.3262 13.3999L65.6166 4.09985L60.1421 4.09985C59.8059 4.09985 59.5369 3.85498 59.5369 3.49438Z" fill="#000000" fill-opacity="1.000000" fill-rule="evenodd"/>
		<path id="path14" d="M21.3147 18.5493L18.127 18.5493C17.822 18.5261 17.58 18.2903 17.5575 17.99L17.5575 1.12329C17.5575 0.785889 17.8309 0.517822 18.1718 0.517822L21.1443 0.517822C21.4537 0.531738 21.7003 0.776611 21.7227 1.08179L21.7227 3.28662L21.781 3.28662C22.5566 1.15576 24.0138 0.161865 25.9775 0.161865C27.9728 0.161865 29.2191 1.15576 30.1158 3.28662C30.887 1.15576 32.64 0.161865 34.5187 0.161865C35.8547 0.161865 37.3164 0.730469 38.2086 2.0061C39.2174 3.42529 39.0111 5.48682 39.0111 7.29395L39.0067 17.9392C39.0067 18.2766 38.7332 18.5493 38.3925 18.5493L35.2091 18.5493C34.8907 18.5261 34.6353 18.2627 34.6353 17.9392L34.6353 8.99976C34.6353 8.28784 34.698 6.51294 34.5455 5.83789C34.308 4.70557 33.5951 4.38672 32.6715 4.38672C31.9003 4.38672 31.0933 4.91821 30.766 5.7688C30.4386 6.61914 30.4701 8.04272 30.4701 8.99976L30.4701 17.9392C30.4701 18.2766 30.1965 18.5493 29.8558 18.5493L26.6725 18.5493C26.3497 18.5261 26.0986 18.2627 26.0986 17.9392L26.0941 8.99976C26.0941 7.11841 26.3945 4.34961 24.1304 4.34961C21.8392 4.34961 21.929 7.04907 21.929 8.99976L21.929 17.9392C21.929 18.2766 21.6554 18.5493 21.3147 18.5493Z" fill="#000000" fill-opacity="1.000000" fill-rule="evenodd"/>
		<path id="path16" d="M80.2327 0.161865C84.9628 0.161865 87.5228 4.34961 87.5228 9.67456C87.5228 14.8191 84.6937 18.9006 80.2327 18.9006C75.5876 18.9006 73.059 14.7129 73.059 9.49414C73.059 4.24341 75.619 0.161865 80.2327 0.161865ZM80.2595 3.60547C77.9102 3.60547 77.7622 6.90576 77.7622 8.96265C77.7622 11.0242 77.7308 15.4246 80.2327 15.4246C82.703 15.4246 82.8196 11.8748 82.8196 9.71143C82.8196 8.28784 82.7614 6.58691 82.3444 5.23706C81.9857 4.06299 81.2728 3.60547 80.2595 3.60547Z" fill="#000000" fill-opacity="1.000000" fill-rule="evenodd"/>
		<path id="path18" d="M93.6562 18.5493L90.4819 18.5493C90.1636 18.5261 89.9081 18.2627 89.9081 17.9392L89.9036 1.06787C89.9304 0.758057 90.1949 0.517822 90.5178 0.517822L93.4724 0.517822C93.7504 0.531738 93.9791 0.72583 94.0419 0.989258L94.0419 3.56836L94.1001 3.56836C94.9923 1.26196 96.2433 0.161865 98.4447 0.161865C99.8749 0.161865 101.269 0.693359 102.166 2.14941C103 3.49902 103 5.7688 103 7.40039L103 18.0176C102.964 18.3135 102.7 18.5493 102.386 18.5493L99.189 18.5493C98.8975 18.5261 98.6554 18.3042 98.624 18.0176L98.624 8.85645C98.624 7.01196 98.8302 4.31274 96.6289 4.31274C95.8531 4.31274 95.1403 4.84888 94.7861 5.66235C94.3378 6.69312 94.2794 7.71924 94.2794 8.85645L94.2794 17.9392C94.275 18.2766 93.9971 18.5493 93.6562 18.5493Z" fill="#000000" fill-opacity="1.000000" fill-rule="evenodd"/>
		<path id="path28" d="M51.184 10.4927C51.184 11.7729 51.2153 12.8406 50.5876 13.9778C50.0811 14.9021 49.274 15.4707 48.3818 15.4707C47.1578 15.4707 46.4404 14.5093 46.4404 13.0903C46.4404 10.2891 48.875 9.78076 51.184 9.78076L51.184 10.4927ZM54.3987 18.5029C54.188 18.697 53.8831 18.7109 53.6455 18.5815C52.5874 17.6755 52.3945 17.2549 51.8162 16.3906C50.0676 18.2302 48.8257 18.7803 46.5615 18.7803C43.8759 18.7803 41.791 17.0747 41.791 13.6587C41.791 10.9917 43.1898 9.17529 45.1896 8.28784C46.9202 7.50195 49.3368 7.36328 51.184 7.146L51.184 6.7207C51.184 5.9397 51.2423 5.01514 50.7939 4.34033C50.4083 3.73486 49.6641 3.48511 49.005 3.48511C47.7899 3.48511 46.7095 4.12769 46.4449 5.45898C46.3911 5.75464 46.1804 6.0459 45.8889 6.05981L42.7998 5.71777C42.5398 5.65771 42.2483 5.44043 42.3246 5.02905C43.033 1.16479 46.4225 0 49.4534 0C51.0046 0 53.0312 0.425293 54.2552 1.63623C55.8065 3.12939 55.6586 5.12158 55.6586 7.28931L55.6586 12.4109C55.6586 13.95 56.2773 14.6248 56.8601 15.4568C57.0619 15.7527 57.1067 16.1086 56.8467 16.3306C56.1965 16.8899 55.0398 17.9297 54.4032 18.5122L54.3987 18.5029Z" fill="#000000" fill-opacity="1.000000" fill-rule="evenodd"/>
		<path id="path30" d="M9.39294 10.4927C9.39294 11.7732 9.42432 12.8408 8.79663 13.978C8.29004 14.9023 7.48743 15.4709 6.59082 15.4709C5.36682 15.4709 4.65393 14.5095 4.65393 13.0906C4.65393 10.2893 7.0885 9.78101 9.39294 9.78101L9.39294 10.4927ZM12.6077 18.5032C12.397 18.6973 12.092 18.7112 11.8545 18.5818C10.7964 17.6758 10.608 17.2551 10.0251 16.3909C8.27661 18.2305 7.03918 18.7805 4.77051 18.7805C2.08936 18.7805 0 17.075 0 13.6589C0 10.9919 1.40332 9.17554 3.39856 8.28809C5.12915 7.5022 7.54578 7.36353 9.39294 7.14624L9.39294 6.72095C9.39294 5.93994 9.45129 5.01538 9.00745 4.34058C8.61731 3.73511 7.87305 3.48535 7.21851 3.48535C6.00342 3.48535 4.91846 4.12793 4.65393 5.45923C4.6001 5.75488 4.3894 6.04614 4.10242 6.06006L1.00879 5.71802C0.748779 5.65796 0.461792 5.44067 0.533569 5.0293C1.24646 1.16504 4.63147 0.000244141 7.66235 0.000244141C9.21362 0.000244141 11.2402 0.425537 12.4642 1.63647C14.0155 3.12964 13.8676 5.12183 13.8676 7.28955L13.8676 12.4111C13.8676 13.9502 14.4863 14.625 15.0691 15.457C15.2754 15.7529 15.3202 16.1089 15.0602 16.3308C14.41 16.8901 13.2533 17.9299 12.6166 18.5125L12.6077 18.5032Z" fill="#000000" fill-opacity="1.000000" fill-rule="evenodd"/>
	</g>
</svg>
