<svg width="167.000000" height="52.000000" viewBox="0 0 167 52" fill="none" xmlns="http://www.w3.org/2000/svg" xmlns:xlink="http://www.w3.org/1999/xlink">
	<desc>
			Created with Pixso.
	</desc>
	<defs>
		<clipPath id="clip8_609">
			<rect id="ArrowRight" width="16.000000" height="16.000000" transform="translate(127.500000 18.000000)" fill="white" fill-opacity="0"/>
		</clipPath>
	</defs>
	<path id="Tümünü Gör" d="M27.9686 32.128L29.6406 32.128L29.6406 22.184L33.4726 22.184L33.4726 20.608L24.1366 20.608L24.1366 22.184L27.9686 22.184L27.9686 32.128ZM38.4839 22.04L40.0839 22.04L40.0839 20.44L38.4839 20.44L38.4839 22.04ZM35.2599 22.04L36.8599 22.04L36.8599 20.44L35.2599 20.44L35.2599 22.04ZM37.2119 32.36C37.8359 32.36 38.3879 32.248 38.8679 32.024C39.3533 31.8 39.7533 31.4907 40.0679 31.096L40.0679 32.128L41.5559 32.128L41.5559 23.488L39.8679 23.488L39.8679 27.984C39.8679 28.6667 39.7693 29.2133 39.5719 29.624C39.3746 30.0293 39.1079 30.3227 38.7719 30.504C38.4413 30.6853 38.0759 30.776 37.6759 30.776C37.2173 30.776 36.8439 30.6827 36.5559 30.496C36.2679 30.3093 36.0466 30.064 35.8919 29.76C35.7373 29.456 35.6306 29.128 35.5719 28.776C35.5186 28.4187 35.4919 28.072 35.4919 27.736L35.4919 23.488L33.7959 23.488L33.7959 28.288C33.7959 28.5547 33.8199 28.864 33.8679 29.216C33.9159 29.568 34.0066 29.928 34.1399 30.296C34.2733 30.664 34.4653 31.0053 34.7159 31.32C34.9719 31.6293 35.3026 31.88 35.7079 32.072C36.1133 32.264 36.6146 32.36 37.2119 32.36ZM43.7917 32.128L45.4717 32.128L45.4717 26.728C45.4717 26.1413 45.6317 25.6667 45.9517 25.304C46.277 24.9413 46.7037 24.76 47.2317 24.76C47.765 24.76 48.189 24.9413 48.5037 25.304C48.8237 25.6613 48.9837 26.152 48.9837 26.776L48.9757 32.128L50.6477 32.128L50.6557 26.728L50.6557 26.728C50.6557 26.0773 50.829 25.5867 51.1757 25.256C51.5277 24.9253 51.941 24.76 52.4157 24.76C52.9384 24.76 53.3597 24.936 53.6797 25.288C53.9997 25.64 54.1597 26.1253 54.1597 26.744L54.1517 32.128L55.8237 32.128L55.8317 26.344C55.8317 25.416 55.573 24.672 55.0557 24.112C54.5437 23.552 53.8237 23.272 52.8957 23.272C52.3304 23.272 51.8184 23.3973 51.3597 23.648C50.901 23.8933 50.5384 24.2347 50.2717 24.672C50.0424 24.2347 49.7144 23.8933 49.2877 23.648C48.8664 23.3973 48.357 23.272 47.7597 23.272C47.2424 23.272 46.7677 23.376 46.3357 23.584C45.909 23.7867 45.557 24.064 45.2797 24.416L45.2797 23.488L43.7917 23.488L43.7917 32.128ZM62.4371 22.04L64.0371 22.04L64.0371 20.44L62.4371 20.44L62.4371 22.04ZM59.2131 22.04L60.8131 22.04L60.8131 20.44L59.2131 20.44L59.2131 22.04ZM61.1651 32.36C61.7891 32.36 62.3411 32.248 62.8211 32.024C63.3064 31.8 63.7064 31.4907 64.0211 31.096L64.0211 32.128L65.5091 32.128L65.5091 23.488L63.8211 23.488L63.8211 27.984C63.8211 28.6667 63.7224 29.2133 63.5251 29.624C63.3277 30.0293 63.0611 30.3227 62.7251 30.504C62.3944 30.6853 62.0291 30.776 61.6291 30.776C61.1704 30.776 60.7971 30.6827 60.5091 30.496C60.2211 30.3093 59.9997 30.064 59.8451 29.76C59.6904 29.456 59.5837 29.128 59.5251 28.776C59.4717 28.4187 59.4451 28.072 59.4451 27.736L59.4451 23.488L57.7491 23.488L57.7491 28.288C57.7491 28.5547 57.7731 28.864 57.8211 29.216C57.8691 29.568 57.9597 29.928 58.0931 30.296C58.2264 30.664 58.4184 31.0053 58.6691 31.32C58.9251 31.6293 59.2557 31.88 59.6611 32.072C60.0664 32.264 60.5677 32.36 61.1651 32.36ZM67.7448 32.128L69.4408 32.128L69.4408 27.632C69.4408 26.9493 69.5395 26.4053 69.7368 26C69.9395 25.5893 70.2061 25.2933 70.5368 25.112C70.8675 24.9307 71.2328 24.84 71.6328 24.84C72.0915 24.84 72.4648 24.9333 72.7528 25.12C73.0408 25.3067 73.2621 25.552 73.4168 25.856C73.5715 26.16 73.6755 26.4907 73.7288 26.848C73.7875 27.2 73.8168 27.544 73.8168 27.88L73.8168 32.128L75.5128 32.128L75.5128 27.328C75.5128 27.0613 75.4888 26.752 75.4408 26.4C75.3928 26.048 75.3021 25.688 75.1688 25.32C75.0355 24.952 74.8408 24.6133 74.5848 24.304C74.3341 23.9893 74.0061 23.736 73.6008 23.544C73.1955 23.352 72.6941 23.256 72.0968 23.256C71.4728 23.256 70.9181 23.368 70.4328 23.592C69.9528 23.816 69.5555 24.1253 69.2408 24.52L69.2408 23.488L67.7448 23.488L67.7448 32.128ZM82.1246 22.04L83.7246 22.04L83.7246 20.44L82.1246 20.44L82.1246 22.04ZM78.9006 22.04L80.5006 22.04L80.5006 20.44L78.9006 20.44L78.9006 22.04ZM80.8526 32.36C81.4766 32.36 82.0286 32.248 82.5086 32.024C82.9939 31.8 83.3939 31.4907 83.7086 31.096L83.7086 32.128L85.1966 32.128L85.1966 23.488L83.5086 23.488L83.5086 27.984C83.5086 28.6667 83.4099 29.2133 83.2126 29.624C83.0152 30.0293 82.7486 30.3227 82.4126 30.504C82.0819 30.6853 81.7166 30.776 81.3166 30.776C80.8579 30.776 80.4846 30.6827 80.1966 30.496C79.9086 30.3093 79.6872 30.064 79.5326 29.76C79.3779 29.456 79.2712 29.128 79.2126 28.776C79.1592 28.4187 79.1326 28.072 79.1326 27.736L79.1326 23.488L77.4366 23.488L77.4366 28.288C77.4366 28.5547 77.4606 28.864 77.5086 29.216C77.5566 29.568 77.6472 29.928 77.7806 30.296C77.9139 30.664 78.1059 31.0053 78.3566 31.32C78.6126 31.6293 78.9432 31.88 79.3486 32.072C79.7539 32.264 80.2552 32.36 80.8526 32.36ZM95.3554 32.368C96.4754 32.368 97.4248 32.1307 98.2034 31.656C98.9874 31.176 99.5848 30.5173 99.9954 29.68C100.406 28.8427 100.611 27.8907 100.611 26.824C100.611 26.7813 100.609 26.6827 100.603 26.528C100.598 26.3733 100.59 26.2453 100.579 26.144L96.5634 26.144L96.5634 27.488L98.8034 27.488C98.6861 28.5547 98.3448 29.3733 97.7794 29.944C97.2141 30.5093 96.4381 30.7867 95.4514 30.776C94.2301 30.7653 93.3101 30.3573 92.6914 29.552C92.0781 28.7467 91.7741 27.6853 91.7794 26.368C91.7848 25.488 91.9208 24.7173 92.1874 24.056C92.4594 23.3893 92.8674 22.872 93.4114 22.504C93.9554 22.136 94.6354 21.9547 95.4514 21.96C96.2461 21.9653 96.9048 22.1733 97.4274 22.584C97.9501 22.9947 98.3261 23.544 98.5554 24.232L100.251 23.928C99.9581 22.8187 99.4061 21.9493 98.5954 21.32C97.7901 20.6907 96.7101 20.376 95.3554 20.376C94.3048 20.376 93.3768 20.6187 92.5714 21.104C91.7661 21.584 91.1368 22.272 90.6834 23.168C90.2301 24.0587 90.0034 25.1253 90.0034 26.368C90.0034 27.6267 90.2354 28.704 90.6994 29.6C91.1634 30.496 91.7981 31.1813 92.6034 31.656C93.4088 32.1307 94.3261 32.368 95.3554 32.368ZM106.782 22.04L108.382 22.04L108.382 20.44L106.782 20.44L106.782 22.04ZM103.558 22.04L105.158 22.04L105.158 20.44L103.558 20.44L103.558 22.04ZM105.958 32.368C106.817 32.368 107.563 32.176 108.198 31.792C108.833 31.4027 109.323 30.8667 109.67 30.184C110.022 29.496 110.198 28.7013 110.198 27.8C110.198 26.9093 110.025 26.1227 109.678 25.44C109.331 24.752 108.841 24.216 108.206 23.832C107.571 23.4427 106.822 23.248 105.958 23.248C105.11 23.248 104.369 23.44 103.734 23.824C103.099 24.208 102.606 24.7413 102.254 25.424C101.902 26.1067 101.726 26.8987 101.726 27.8C101.726 28.6907 101.899 29.48 102.246 30.168C102.593 30.856 103.081 31.3947 103.71 31.784C104.345 32.1733 105.094 32.368 105.958 32.368ZM105.958 30.792C105.153 30.792 104.542 30.5227 104.126 29.984C103.71 29.44 103.502 28.712 103.502 27.8C103.502 26.92 103.702 26.2053 104.102 25.656C104.502 25.1013 105.121 24.824 105.958 24.824C106.774 24.824 107.387 25.0933 107.798 25.632C108.214 26.1707 108.422 26.8933 108.422 27.8C108.422 28.6853 108.217 29.4053 107.806 29.96C107.401 30.5147 106.785 30.792 105.958 30.792ZM111.956 32.128L113.644 32.128L113.644 27.768C113.644 27.2613 113.724 26.792 113.884 26.36C114.044 25.928 114.327 25.5813 114.732 25.32C115.02 25.1333 115.337 25.024 115.684 24.992C116.031 24.96 116.343 24.9813 116.62 25.056L116.62 23.488C116.231 23.4133 115.817 23.416 115.38 23.496C114.948 23.576 114.569 23.736 114.244 23.976C113.924 24.1893 113.657 24.4853 113.444 24.864L113.444 23.488L111.956 23.488L111.956 32.128Z" fill="#F84646" fill-opacity="1.000000" fill-rule="evenodd"/>
	<rect id="ArrowRight" width="16.000000" height="16.000000" transform="translate(127.500000 18.000000)" fill="#FFFFFF" fill-opacity="0"/>
	<g clip-path="url(#clip8_609)">
		<path id="Vector" d="M130 26L141 26" stroke="#F84646" stroke-opacity="1.000000" stroke-width="2.000000" stroke-linejoin="round" stroke-linecap="round"/>
		<path id="Vector" d="M136.5 21.5L141 26L136.5 30.5" stroke="#F84646" stroke-opacity="1.000000" stroke-width="2.000000" stroke-linejoin="round" stroke-linecap="round"/>
	</g>
</svg>
