<svg width="120.934448" height="34.709961" viewBox="0 0 120.934 34.71" fill="none" xmlns="http://www.w3.org/2000/svg" xmlns:xlink="http://www.w3.org/1999/xlink">
	<desc>
			Created with Pixso.
	</desc>
	<defs/>
	<path id="Vector" d="M76.2001 10.1699L74.2001 6.79004L70.65 8.47998L68.65 5.09009L65.1001 6.79004L63.1101 3.38989L59.5601 5.09009L57.5601 1.69995L54.01 3.3999L52.02 0L48.4601 1.69995L40.9301 26.22L50.0801 29.02C50.4247 27.9148 51.1533 26.9695 52.1343 26.3545C53.1152 25.7397 54.2837 25.4961 55.4286 25.6675C56.5735 25.8389 57.6193 26.4143 58.377 27.2896C59.1346 28.1648 59.5543 29.2822 59.5601 30.4399L59.5601 30.54C59.5801 30.98 59.53 31.4199 59.4 31.8601L68.7001 34.71L76.2001 10.1699Z" fill="#D61920" fill-opacity="1.000000" fill-rule="evenodd"/>
	<path id="Vector" d="M48.7802 24.2002C48.5488 24.1619 48.339 24.042 48.1885 23.8621C48.0381 23.6824 47.957 23.4546 47.9602 23.22L47.9602 11.22C47.9589 11.0884 47.9838 10.9578 48.0336 10.8359C48.0834 10.7139 48.157 10.603 48.2501 10.51C48.3433 10.417 48.454 10.3433 48.5759 10.2935C48.6979 10.2437 48.8285 10.2188 48.9602 10.22L57.6301 10.22C58.141 10.2188 58.6471 10.3181 59.1196 10.5125C59.592 10.7065 60.0216 10.9922 60.3838 11.3523C60.7458 11.7126 61.0336 12.1409 61.2302 12.6123C61.427 13.0837 61.5288 13.5894 61.5302 14.1001L61.5302 23.22C61.5299 23.3674 61.4971 23.5127 61.4342 23.646C61.3712 23.7791 61.2795 23.8967 61.1659 23.9902C61.0522 24.0837 60.9192 24.1511 60.7765 24.1875C60.6338 24.2239 60.4847 24.228 60.3402 24.2002C60.1107 24.1597 59.9031 24.0388 59.7546 23.8594C59.6062 23.6797 59.5266 23.4531 59.5302 23.22L59.5302 14.1101C59.5302 13.6062 59.33 13.1228 58.9736 12.7666C58.6173 12.4102 58.134 12.2102 57.6301 12.2102L55.7402 12.2102L55.7402 23.2102C55.741 23.344 55.7148 23.4768 55.6632 23.6006C55.6117 23.7241 55.5359 23.8362 55.4402 23.9302C55.3263 24.043 55.1868 24.1265 55.0334 24.1736C54.8801 24.2207 54.7178 24.2297 54.5602 24.2002C54.3289 24.1619 54.1189 24.042 53.9685 23.8621C53.818 23.6824 53.7371 23.4546 53.7402 23.22L53.7402 12.2102L49.9602 12.2102L49.9602 23.2102C49.9611 23.3572 49.9296 23.5027 49.8678 23.6362C49.806 23.7698 49.7156 23.8879 49.6029 23.9824C49.4902 24.0771 49.358 24.1455 49.2158 24.1831C49.0736 24.2207 48.9249 24.2266 48.7802 24.2002ZM63.2002 29.4302C62.9672 29.3916 62.7559 29.2703 62.6052 29.0884C62.4545 28.9065 62.3746 28.6763 62.3801 28.4402C62.3812 28.1777 62.4855 27.9263 62.6702 27.74C62.8549 27.5518 63.1064 27.4438 63.3701 27.4402C64.2202 27.4402 64.9502 26.9001 65.1902 26.0901L66.2202 22.6602L62.8502 11.3901C62.8099 11.2642 62.7952 11.1313 62.8066 10.9995C62.8181 10.8677 62.8557 10.7395 62.9171 10.6223C62.9785 10.5051 63.0625 10.4011 63.1643 10.3167C63.2661 10.2322 63.3837 10.1687 63.5101 10.1301C63.7621 10.0603 64.0311 10.0898 64.2618 10.2126C64.4927 10.3354 64.6674 10.5422 64.7501 10.79L67.2501 19.1902L69.7902 10.79C69.9102 10.3301 70.4202 10.02 70.9402 10.1201L71.0101 10.1301C71.5502 10.3 71.8502 10.8701 71.6902 11.4001L68.2202 22.9602L67.1201 26.6602C66.8733 27.4563 66.3839 28.1555 65.7202 28.6602C65.045 29.1665 64.224 29.4402 63.3801 29.4402C63.3199 29.4424 63.2598 29.439 63.2002 29.4302Z" fill="#FEFEFE" fill-opacity="1.000000" fill-rule="evenodd"/>
	<path id="Vector" d="M2.08008 22.01L4.04004 22.01C4.56262 22.01 5.0636 21.8025 5.43311 21.4329C5.80249 21.0635 6.01013 20.5625 6.01013 20.04L6.01013 14.27C6.01147 14.0112 5.96179 13.7549 5.86401 13.5154C5.76624 13.2759 5.62219 13.0579 5.44019 12.874C5.25818 12.6902 5.04175 12.5439 4.80322 12.4438C4.5647 12.3435 4.30884 12.2913 4.05005 12.29L2.08008 12.29L2.08008 21.99L2.08008 22.01ZM0.850098 24.0701C0.609985 24.0293 0.392334 23.9043 0.23645 23.7173C0.0805664 23.53 -0.0032959 23.2935 0.00012207 23.05L0.00012207 5.12988C-0.00170898 4.99292 0.0239258 4.85669 0.0754395 4.72974C0.126953 4.60254 0.203369 4.48706 0.300049 4.38989C0.417114 4.26855 0.562256 4.17749 0.722656 4.12524C0.883057 4.073 1.05396 4.06079 1.22009 4.09009C1.72009 4.18994 2.08008 4.60986 2.08008 5.11987L2.08008 10.22L4.04004 10.22C4.57153 10.2188 5.0979 10.3223 5.58923 10.5247C6.08057 10.7271 6.5271 11.0244 6.90332 11.3997C7.27954 11.7749 7.578 12.2207 7.78162 12.7117C7.98523 13.2024 8.09009 13.7285 8.09009 14.26L8.09009 20.03C8.0874 21.1006 7.66101 22.1267 6.90393 22.8838C6.14685 23.6409 5.12073 24.0674 4.05005 24.0701L1.04004 24.0701C0.973267 24.074 0.90625 24.0706 0.840088 24.0601L0.850098 24.0701Z" fill="#333545" fill-opacity="1.000000" fill-rule="evenodd"/>
	<path id="Vector" d="M15.1401 12.21C15.0278 12.1904 14.9141 12.1804 14.8002 12.1799C14.5406 12.1772 14.2833 12.2266 14.0431 12.3245C13.8029 12.4226 13.5846 12.5676 13.4011 12.751C13.2178 12.9346 13.0728 13.1528 12.9746 13.3931C12.8766 13.6333 12.8275 13.8906 12.8302 14.1499L12.8302 20.1599C12.8289 20.4192 12.8789 20.6758 12.9774 20.9155C13.0759 21.155 13.2209 21.3728 13.4042 21.5559C13.5874 21.7393 13.8051 21.8843 14.0447 21.9827C14.2843 22.0813 14.541 22.1313 14.8002 22.1301C15.3226 22.1301 15.8237 21.9224 16.1931 21.553C16.5626 21.1836 16.7701 20.6826 16.7701 20.1599L16.7701 14.1599C16.7701 13.1899 16.0802 12.3801 15.1401 12.21ZM14.0901 24.1599C13.1526 23.9951 12.3033 23.5044 11.6923 22.7744C11.0812 22.0444 10.7476 21.1221 10.7501 20.1699L10.7501 14.1599C10.7484 13.6282 10.8527 13.1013 11.057 12.6101C11.2614 12.1191 11.5616 11.6736 11.9402 11.3C12.3157 10.9246 12.7616 10.6272 13.2524 10.4246C13.7432 10.2222 14.2692 10.1187 14.8002 10.1201C15.8716 10.1201 16.8992 10.5457 17.6569 11.3032C18.4146 12.061 18.8401 13.0886 18.8401 14.1599L18.8401 20.1699C18.8401 21.25 18.4202 22.27 17.6501 23.04C17.2761 23.4146 16.8319 23.7117 16.3428 23.9143C15.8538 24.1167 15.3295 24.2207 14.8002 24.22C14.5621 24.2209 14.3246 24.2009 14.0901 24.1599ZM25.8901 12.22C25.7778 12.2004 25.6642 12.1904 25.5502 12.1899C25.2906 12.1873 25.0333 12.2366 24.7931 12.3345C24.5529 12.4326 24.3346 12.5776 24.1511 12.761C23.9678 12.9446 23.8228 13.1628 23.7246 13.4031C23.6266 13.6433 23.5775 13.9006 23.5802 14.1599L23.5802 20.1699C23.5789 20.4292 23.6289 20.6858 23.7274 20.9255C23.8259 21.165 23.9709 21.3828 24.1542 21.5659C24.3374 21.7493 24.5551 21.8943 24.7947 21.9927C25.0343 22.0913 25.291 22.1414 25.5502 22.1401C25.8092 22.1414 26.066 22.0913 26.3055 21.9927C26.5452 21.8943 26.7629 21.7493 26.946 21.5659C27.1293 21.3828 27.2743 21.165 27.3729 20.9255C27.4714 20.6858 27.5215 20.4292 27.5201 20.1699L27.5201 14.1599C27.5201 13.2 26.8302 12.3901 25.8901 12.22ZM24.8401 24.1599C23.9044 23.9929 23.0575 23.5012 22.4484 22.7715C21.8394 22.0417 21.5071 21.1206 21.5101 20.1699L21.5101 14.1599C21.5117 13.5706 21.6418 12.9888 21.8916 12.4548C22.1412 11.9211 22.5045 11.4482 22.9558 11.0691C23.4071 10.6902 23.9358 10.4143 24.5048 10.2607C25.0737 10.1072 25.6694 10.0796 26.2501 10.1799C27.1879 10.3425 28.0381 10.8311 28.651 11.5591C29.2638 12.2871 29.6 13.2083 29.6001 14.1599L29.6001 20.1699C29.6013 20.7041 29.4958 21.2332 29.2898 21.7261C29.0837 22.219 28.7812 22.6658 28.4001 23.04C28.0261 23.4146 27.5819 23.7117 27.0928 23.9143C26.6038 24.1167 26.0795 24.2207 25.5502 24.22C25.3102 24.22 25.0702 24.2 24.8401 24.1599ZM33.1101 24.2C32.87 24.1594 32.6523 24.0344 32.4965 23.8472C32.3406 23.6602 32.2567 23.4236 32.2601 23.1799L32.2601 5.13013C32.2601 4.8501 32.3601 4.58008 32.5602 4.39014C32.6781 4.27368 32.8224 4.18726 32.9808 4.13867C33.1393 4.08984 33.3071 4.08008 33.4701 4.11011C33.9701 4.18994 34.3401 4.62012 34.3401 5.13013L34.3401 15.8101L39.1201 10.45C39.3601 10.1899 39.7201 10.0701 40.0802 10.1301C40.2616 10.1604 40.4318 10.2388 40.5726 10.3572C40.7135 10.4756 40.8202 10.6296 40.8815 10.803C40.9427 10.9766 40.9563 11.1633 40.9209 11.344C40.8855 11.5247 40.8024 11.6924 40.6802 11.8301L37.0702 15.8601L40.8002 22.6899C40.8673 22.8052 40.9108 22.9326 40.928 23.0649C40.9451 23.1973 40.9357 23.3315 40.9001 23.46C40.8615 23.5925 40.7964 23.7158 40.7087 23.8223C40.6211 23.929 40.5127 24.0166 40.3901 24.0801C40.1785 24.2017 39.9303 24.2444 39.6902 24.2C39.5408 24.1748 39.3988 24.1169 39.2743 24.0305C39.1499 23.9441 39.046 23.8313 38.9701 23.7L35.6101 17.52L34.3302 18.9299L34.3302 23.1799C34.3302 23.4558 34.2206 23.7205 34.0255 23.9155C33.8304 24.1104 33.5659 24.22 33.2902 24.22C33.2201 24.22 33.1602 24.22 33.0901 24.2L33.1101 24.2ZM78.9202 24.1899C78.3578 24.0959 77.8236 23.8772 77.3564 23.5503C76.8893 23.2234 76.5011 22.7961 76.2201 22.3C76.0828 22.0569 76.0468 21.7695 76.1201 21.5C76.2002 21.24 76.3701 21.02 76.6001 20.8801C76.8137 20.7634 77.0612 20.7244 77.3002 20.77C77.6001 20.8201 77.8701 21 78.0201 21.27C78.2902 21.73 78.7201 22.03 79.2501 22.1201C79.5234 22.1675 79.8038 22.1526 80.0706 22.0764C80.3372 22.0002 80.5833 21.8647 80.7902 21.6799C81.1902 21.3101 81.3901 20.78 81.3401 20.26C81.329 19.9934 81.2554 19.7334 81.1251 19.5005C80.9948 19.2678 80.8115 19.0688 80.5901 18.9199L77.7902 16.9299C77.334 16.6096 76.954 16.1926 76.6775 15.7087C76.4009 15.2246 76.2345 14.6858 76.1902 14.1301C76.1539 13.5693 76.246 13.0078 76.459 12.488C76.6721 11.9683 77.0009 11.5039 77.4202 11.1301C77.8292 10.7498 78.318 10.4653 78.8507 10.2976C79.3834 10.1296 79.9469 10.0828 80.5001 10.1599C81.6802 10.3601 82.6401 11.04 83.1902 12C83.3226 12.24 83.3572 12.5217 83.2863 12.7866C83.2155 13.0513 83.0448 13.2783 82.8102 13.4199C82.5984 13.5417 82.3503 13.5842 82.1101 13.54C81.9607 13.5146 81.8187 13.4568 81.6943 13.3704C81.5698 13.2839 81.4659 13.1711 81.3901 13.04C81.2646 12.8279 81.0939 12.646 80.8898 12.5078C80.6858 12.3694 80.4537 12.2781 80.2101 12.24C79.9609 12.1948 79.7047 12.2085 79.4617 12.2795C79.2188 12.3508 78.9956 12.4775 78.8102 12.6499C78.629 12.821 78.4877 13.0295 78.3961 13.261C78.3046 13.4927 78.265 13.7415 78.2802 13.99C78.3002 14.48 78.5802 14.96 79.0001 15.24L81.8002 17.1899C82.2755 17.5227 82.6685 17.9597 82.9492 18.4675C83.23 18.9753 83.391 19.5405 83.4202 20.1201C83.4664 20.6968 83.3776 21.2764 83.1606 21.8127C82.9436 22.3494 82.6045 22.8276 82.1702 23.21C81.7477 23.6025 81.243 23.896 80.693 24.0688C80.1429 24.2419 79.5612 24.29 78.9901 24.21L78.9102 24.1899L78.9202 24.1899ZM86.9502 24.22C86.71 24.1777 86.4922 24.0525 86.3351 23.8662C86.1779 23.6797 86.0912 23.4438 86.0901 23.2L86.0901 5.1499C86.0887 5.01318 86.1147 4.8772 86.1666 4.75049C86.2184 4.62378 86.2949 4.50854 86.3917 4.41162C86.4886 4.3147 86.6038 4.23828 86.7306 4.18652C86.8573 4.13477 86.9932 4.10864 87.1301 4.11011L87.3302 4.12012C87.8302 4.21997 88.1702 4.63013 88.1702 5.1499L88.1702 10.25L90.1401 10.25C90.671 10.2488 91.197 10.3523 91.6877 10.5549C92.1785 10.7573 92.6244 11.0549 92.9998 11.4304C93.3752 11.8057 93.6727 12.2517 93.8754 12.7424C94.0779 13.2332 94.1815 13.759 94.1802 14.29L94.1802 23.1899C94.181 23.3411 94.1487 23.4902 94.0853 23.6274C94.0221 23.7646 93.9294 23.886 93.8141 23.9834C93.6986 24.0808 93.5631 24.1514 93.4174 24.1907C93.2715 24.2297 93.1188 24.2363 92.9701 24.21C92.4701 24.1201 92.1101 23.6899 92.1101 23.1799L92.1101 14.28C92.1101 14.0217 92.0591 13.7661 91.96 13.5276C91.8608 13.2893 91.7156 13.0728 91.5326 12.8906C91.3495 12.7085 91.1322 12.5642 90.8933 12.4663C90.6543 12.3684 90.3983 12.3186 90.1401 12.3201L88.1702 12.3201L88.1702 23.1899C88.1713 23.342 88.1388 23.4924 88.075 23.6304C88.0111 23.7683 87.9175 23.8904 87.8008 23.9878C87.6842 24.0854 87.5475 24.156 87.4004 24.1943C87.2533 24.2327 87.0995 24.238 86.9502 24.21L86.9502 24.22ZM101.23 12.23C100.947 12.1785 100.656 12.1902 100.377 12.2642C100.099 12.3381 99.8402 12.4724 99.6196 12.6577C99.399 12.8428 99.222 13.0745 99.1012 13.3357C98.9802 13.5972 98.9185 13.8821 98.9202 14.1699L98.9202 20.1799C98.9188 20.4382 98.9685 20.6941 99.0664 20.9331C99.1644 21.1721 99.3085 21.3894 99.4907 21.5725C99.6729 21.7554 99.8893 21.9006 100.128 21.9998C100.366 22.0989 100.622 22.1501 100.88 22.1499C101.4 22.1499 101.9 21.95 102.27 21.5801C102.455 21.3972 102.602 21.1792 102.702 20.9387C102.801 20.6982 102.852 20.4402 102.85 20.1799L102.85 14.1599C102.85 13.2 102.17 12.3801 101.22 12.22L101.23 12.23ZM100.17 24.1499C99.2352 23.9851 98.3885 23.4954 97.7793 22.7673C97.17 22.0393 96.8375 21.1194 96.8401 20.1699L96.8401 14.1599C96.8402 13.5698 96.9694 12.9868 97.2184 12.4517C97.4675 11.9167 97.8304 11.4424 98.282 11.0625C98.7335 10.6824 99.2627 10.4055 99.8324 10.2515C100.402 10.0972 100.999 10.0696 101.58 10.1699C102.52 10.3328 103.371 10.8228 103.984 11.553C104.597 12.2832 104.932 13.2065 104.93 14.1599L104.93 20.1699C104.931 20.7026 104.825 21.23 104.619 21.7209C104.413 22.2122 104.11 22.6572 103.73 23.03C103.271 23.4907 102.708 23.833 102.088 24.0281C101.468 24.2231 100.81 24.2651 100.17 24.1499Z" fill="#333545" fill-opacity="1.000000" fill-rule="evenodd"/>
	<path id="Vector" d="M120.9 11.4001C120.934 11.2732 120.943 11.1406 120.926 11.0103C120.909 10.8799 120.866 10.7539 120.8 10.6401C120.725 10.5188 120.625 10.4138 120.509 10.3313C120.392 10.2488 120.26 10.1907 120.12 10.1602C119.862 10.1113 119.596 10.1628 119.374 10.3042C119.153 10.4453 118.994 10.6658 118.93 10.9202C118.93 10.9702 117.81 15.4802 116.93 18.9102L116.91 18.9802L116.89 18.9102L114.89 10.9302C114.852 10.7354 114.754 10.5571 114.611 10.4194C114.468 10.2817 114.286 10.1912 114.09 10.1602C114.031 10.1484 113.971 10.1418 113.91 10.1401C113.45 10.1401 113.05 10.4602 112.92 10.9202C112.91 10.9702 111.79 15.4802 110.92 18.9102L110.9 18.9802L110.88 18.9102C110.03 15.4802 108.88 10.9702 108.88 10.9202C108.833 10.7288 108.731 10.5552 108.588 10.4202C108.444 10.2854 108.264 10.1951 108.07 10.1602C107.904 10.1306 107.732 10.1431 107.572 10.1963C107.411 10.2493 107.267 10.3416 107.151 10.4646C107.035 10.5874 106.951 10.7373 106.907 10.9006C106.864 11.064 106.861 11.2356 106.9 11.4001L109.91 23.4302C109.967 23.6506 110.095 23.8462 110.274 23.9873C110.452 24.1282 110.672 24.2063 110.9 24.2102C111.39 24.2102 111.78 23.8901 111.88 23.4302L113.88 15.4402L113.91 15.3701L113.93 15.4402C114.81 18.9102 115.93 23.4402 115.93 23.4402C115.99 23.6562 116.117 23.8477 116.294 23.9863C116.47 24.1248 116.686 24.2034 116.91 24.2102C117.141 24.2173 117.366 24.1431 117.547 24.0005C117.728 23.8577 117.853 23.6558 117.9 23.4302L120.9 11.4001Z" fill="#333545" fill-opacity="1.000000" fill-rule="evenodd"/>
</svg>
