<svg width="98.000000" height="34.000000" viewBox="0 0 98 34" fill="none" xmlns="http://www.w3.org/2000/svg" xmlns:xlink="http://www.w3.org/1999/xlink">
	<desc>
			Created with Pixso.
	</desc>
	<defs>
		<clipPath id="clip8_620">
			<rect id="OLA logo" width="98.000000" height="34.000000" fill="white" fill-opacity="0"/>
		</clipPath>
	</defs>
	<rect id="OLA logo" width="98.000000" height="34.000000" fill="#FFFFFF" fill-opacity="0"/>
	<g clip-path="url(#clip8_620)">
		<path id="Vector" d="M86.3761 15.8408L80.1389 26.675L74.8174 26.6963L86.3761 6.30371L97.8917 26.6963L92.4858 26.6963L86.3761 15.8398L86.3761 15.8408ZM69.5813 21.98L75.5414 21.98L72.7742 26.6963L65.0059 26.6963L65.0269 20.9536L65.0269 6.4292L69.6034 6.4292L69.5823 21.98L69.5813 21.98ZM53.2352 6.43018C58.9182 6.45142 63.5157 10.9778 63.4948 16.5728C63.4736 22.1477 58.8761 26.675 53.1921 26.675C47.5302 26.6538 42.9326 22.1277 42.9326 16.5315C42.9537 10.9565 47.5513 6.43018 53.2352 6.43018ZM53.2142 21.9597C56.2574 21.9597 58.7043 19.5488 58.7043 16.5728C58.7264 13.5979 56.2574 11.1658 53.2352 11.1658C50.212 11.1445 47.743 13.5767 47.743 16.5527C47.722 19.5276 50.1909 21.9597 53.2131 21.9597L53.2142 21.9597ZM34.4614 14.9631C34.3982 14.1238 34.1843 13.0134 33.865 11.9456C33.208 9.73999 32.0658 7.7124 30.5236 6.01367C29.7142 5.13403 28.7996 4.31592 27.436 3.35205C26.3966 2.83496 25.3745 2.28271 24.3717 1.69678C23.712 1.31958 22.9238 0.857422 21.8816 0.522705C20.6459 0.228516 19.3828 0.0673828 18.1134 0.0415039C16.8805 -0.000976562 15.6444 0.105225 14.4525 0.334717C13.1965 0.543945 12.1533 0.878662 10.7697 1.21436C7.64001 2.57642 5.21423 4.63037 3.12781 7.35571C-4.15161 17.6035 2.42603 31.96 14.5801 33.6567C16.5812 33.9299 18.5823 33.8247 20.4758 33.3848L21.8174 33.0288C21.8595 33.0076 21.9237 32.9863 21.9659 32.9863L23.4991 32.3999C23.5835 32.3574 23.6477 32.3362 23.733 32.2947L24.3717 32.0015C25.5969 31.3916 26.7471 30.6394 27.7985 29.7595C26.8413 30.6365 25.8004 31.4155 24.6909 32.0854L24.7542 32.1279C24.968 32.0642 25.1588 32.0015 25.3717 31.96C25.3717 31.96 25.3717 32.2947 25.3295 32.2319C24.9891 32.4839 25.5214 32.2532 26.202 31.8962C26.8838 31.5403 27.5435 31.0994 28.1388 30.5967C29.0125 29.8638 29.7786 29.0669 30.8639 27.7683C31.9703 25.8186 33.355 24.1208 33.9935 21.8364C34.2064 21.2288 34.3971 20.5168 34.5258 19.7827C34.6522 19.0496 34.7385 18.2952 34.7385 17.5195C34.7175 16.7439 34.6321 15.947 34.4614 14.9631ZM18.7097 32.1904C22.4348 31.603 25.5635 29.5291 28.1178 26.6995C28.8207 25.6721 29.3739 24.7285 30.0546 23.7021C30.906 21.606 30.8428 19.7412 31.1189 18.4216C31.4603 16.031 30.651 14.1035 29.9703 12.0498C28.9271 9.66016 27.5435 7.87939 25.1167 6.49609C18.9858 2.68164 10.6422 3.74951 6.66211 9.45093C6.64099 9.45093 6.53357 9.59766 6.32068 9.89087C6.59778 8.71777 7.30066 8.02612 8.00244 7.35449C10.089 5.63647 12.5157 4.27344 15.283 3.604C18.4126 3.26831 21.5192 3.604 24.3074 4.96606C28.4802 7.35449 31.2474 11.1074 31.9492 15.5486L31.9492 19.6572C31.0768 26.385 25.3295 31.4988 18.7097 32.1904ZM34.0146 16.8906C33.865 7.04126 24.1377 0.397461 14.6654 1.73926C11.8982 2.42993 8.875 3.81323 6.72534 5.7417C5.68213 6.43237 5.19312 7.71167 4.1499 8.73804C-0.0229492 14.8792 0.702026 22.7385 5.89502 27.5176C6.56104 28.1816 7.27234 28.7981 8.02356 29.3621C3.68201 26.741 1.72314 22.7788 1.04236 17.9604C1.04236 16.2415 1.38269 14.5435 1.74414 12.8254C4.17212 5.30078 11.8129 -0.168945 20.1366 1.21436C21.5201 1.55005 22.9038 1.90601 24.3094 2.24194C26.0546 2.93237 27.7784 3.95996 29.1621 5.323C30.5457 6.68408 31.5889 8.40332 32.6321 10.1001C33.3339 11.4634 33.6753 13.1814 34.0157 14.5435C34.0789 15.3191 34.0789 16.116 34.0157 16.8916L34.0146 16.8906Z" fill="#000000" fill-opacity="1.000000" fill-rule="evenodd"/>
		<path id="Vector" d="M25.3724 17.0383C25.3724 21.2725 21.8391 24.7097 17.4755 24.7097C13.1129 24.7097 9.57861 21.2725 9.57861 17.0383C9.57861 12.8054 13.1119 9.36816 17.4755 9.36816C21.8391 9.36816 25.3724 12.8054 25.3724 17.0393L25.3724 17.0383Z" fill="#FFFFFF" fill-opacity="1.000000" fill-rule="evenodd"/>
		<path id="Vector" d="M25.4158 15.7388C25.3093 15.1523 25.1385 14.6912 24.9689 14.042C24.2871 12.6162 23.2871 11.5059 21.9668 10.5623C17.0288 7.27295 10.2384 10.437 9.5155 16.0544C9.23938 18.2761 10.0266 20.4138 11.4313 22.0491C11.0055 21.6082 10.5376 21.1479 10.2184 20.6233L10.1761 20.6658C10.2184 20.791 10.389 20.875 10.4312 21.0005C10.4312 21.0005 10.2605 21.0005 10.3037 20.979C10.1761 20.8335 10.2826 21.0642 10.4734 21.3774C10.644 21.6921 10.8569 21.9863 11.1119 22.2583C11.4744 22.6567 11.8569 23.0127 12.4955 23.4951C13.4333 23.9763 14.2627 24.6055 15.348 24.8987C15.6462 24.9836 15.9867 25.0667 16.328 25.1292C16.6895 25.1929 17.0299 25.2144 17.4135 25.2144C17.7749 25.2144 18.1584 25.1716 18.6263 25.0867C19.1088 25.0295 19.5857 24.9316 20.052 24.7944C21.0938 24.4783 22.0535 23.9341 22.8624 23.2007C23.2671 22.8247 23.8424 22.3423 24.2882 21.7134C24.6506 21.0015 24.6929 20.6445 24.8635 20.3298C25.0332 20.0154 25.2461 19.6594 25.3958 19.177C25.5177 18.605 25.5889 18.0227 25.6085 17.4377C25.5875 16.8513 25.5453 16.2849 25.4167 15.74L25.4158 15.7388ZM20.3492 11.8416C21.0731 12.2603 21.1796 12.323 20.796 12.051C21.3503 12.1763 21.6907 12.4907 22.031 12.8054C22.8615 13.7488 23.5421 14.8591 23.8824 16.1372C24.0742 17.5833 23.9247 19.0295 23.3082 20.3086C22.2018 22.2573 20.4346 23.5566 18.327 23.9126C18.0931 23.9126 17.8381 23.9126 17.6031 23.9338C18.1996 23.8289 18.5831 23.4517 19.6685 23.0532C20.8381 22.6345 22.1586 20.6858 22.7982 19.5532C24.6707 16.4719 22.4568 13.6223 20.3492 11.8416ZM16.348 23.9541C13.113 23.6194 10.6219 20.9578 10.2816 17.8767C10.5787 19.5957 11.6008 20.9153 12.9845 22.0894C13.4745 22.4041 14.1974 22.8438 14.6874 23.1582C15.5177 23.4729 16.0067 23.8086 16.8159 23.9551L16.348 23.9551L16.348 23.9541ZM25.0532 18.3589C24.9056 19.0093 24.7561 19.6372 24.6064 20.2874C24.2871 21.0842 23.8192 21.9014 23.1807 22.5505C22.5421 23.2009 21.7328 23.7034 20.9246 24.1858C20.286 24.5205 19.4767 24.6882 18.817 24.8552C18.4335 24.8977 17.9867 24.7297 17.6031 24.7095C22.3292 24.583 25.5643 20.1621 24.8625 15.7812C24.5211 14.5032 23.8403 13.3918 23.01 12.2815C22.6696 11.7991 22.0089 11.5059 21.5199 11.0234C18.561 9.15869 14.6451 9.53589 12.4102 11.9883C12.0968 12.3105 11.8049 12.6533 11.5366 13.0146C12.7295 11.2542 14.6451 10.0183 16.9435 9.66138C17.7528 9.64014 18.5831 9.78784 19.3914 9.93433C22.9678 11.0234 25.6285 14.5032 25.0532 18.3601L25.0532 18.3589Z" fill="#D7DF23" fill-opacity="1.000000" fill-rule="evenodd"/>
	</g>
</svg>
