<svg width="32.000000" height="32.000000" viewBox="0 0 32 32" fill="none" xmlns="http://www.w3.org/2000/svg" xmlns:xlink="http://www.w3.org/1999/xlink">
	<desc>
			Created with Pixso.
	</desc>
	<defs/>
	<path id="Vector" d="M16 21C13.2385 21 11 18.7612 11 16C11 13.2388 13.2385 11 16 11C18.7615 11 21 13.2388 21 16C21 18.7612 18.7615 21 16 21Z" stroke="#FFFFFF" stroke-opacity="1.000000" stroke-width="2.000000"/>
	<path id="Vector" d="M21.5 4.5C24.8137 4.5 27.5 7.18652 27.5 10.5L27.5 21.5C27.5 24.8135 24.8137 27.5 21.5 27.5L10.5 27.5C7.18628 27.5 4.5 24.8135 4.5 21.5L4.5 10.5C4.5 7.18652 7.18628 4.5 10.5 4.5L21.5 4.5Z" stroke="#FFFFFF" stroke-opacity="1.000000" stroke-width="2.000000" stroke-linejoin="round"/>
	<path id="Vector" d="M24 9.5C24 10.3286 23.3284 11 22.5 11C21.6716 11 21 10.3286 21 9.5C21 8.67139 21.6716 8 22.5 8C23.3284 8 24 8.67139 24 9.5Z" fill="#FFFFFF" fill-opacity="1.000000" fill-rule="evenodd"/>
</svg>
