<svg width="32.000000" height="32.000000" viewBox="0 0 32 32" fill="none" xmlns="http://www.w3.org/2000/svg" xmlns:xlink="http://www.w3.org/1999/xlink">
	<desc>
			Created with Pixso.
	</desc>
	<defs/>
	<path id="Vector" d="M26 5C26.5522 5 27 5.44775 27 6L27 26C27 26.5522 26.5522 27 26 27L6 27C5.44775 27 5 26.5522 5 26L5 6C5 5.44775 5.44775 5 6 5L26 5Z" stroke="#FFFFFF" stroke-opacity="1.000000" stroke-width="2.000000" stroke-linejoin="round"/>
	<path id="Vector" d="M15 14L15 22" stroke="#FFFFFF" stroke-opacity="1.000000" stroke-width="2.000000" stroke-linejoin="round" stroke-linecap="round"/>
	<path id="Vector" d="M11 14L11 22" stroke="#FFFFFF" stroke-opacity="1.000000" stroke-width="2.000000" stroke-linejoin="round" stroke-linecap="round"/>
	<path id="Vector" d="M15 17.5C15 16.5718 15.3688 15.6816 16.0251 15.0249C16.6815 14.3687 17.5718 14 18.5 14C19.4282 14 20.3185 14.3687 20.9749 15.0249C21.6312 15.6816 22 16.5718 22 17.5L22 22" stroke="#FFFFFF" stroke-opacity="1.000000" stroke-width="2.000000" stroke-linejoin="round" stroke-linecap="round"/>
	<path id="Vector" d="M12.5 10C12.5 10.8286 11.8284 11.5 11 11.5C10.1716 11.5 9.5 10.8286 9.5 10C9.5 9.17139 10.1716 8.5 11 8.5C11.8284 8.5 12.5 9.17139 12.5 10Z" fill="#FFFFFF" fill-opacity="1.000000" fill-rule="evenodd"/>
</svg>
