<svg width="32.000000" height="32.000000" viewBox="0 0 32 32" fill="none" xmlns="http://www.w3.org/2000/svg" xmlns:xlink="http://www.w3.org/1999/xlink">
	<desc>
			Created with Pixso.
	</desc>
	<defs/>
	<path id="Vector" d="M12 21C12 21 4 18 6 7C6 7 10 12 16 13L16 11.0005C16 9.85156 16.3956 8.73779 17.1204 7.84619C17.845 6.95508 18.8545 6.34033 19.979 6.10547C21.1035 5.87061 22.2747 6.03027 23.2954 6.55762C24.3162 7.08447 25.1243 7.94727 25.5839 9L30 9L26 13C26 20 21 27 12 27C8 27 6 25 6 25C6 25 11 24 12 21Z" stroke="#FFFFFF" stroke-opacity="1.000000" stroke-width="2.000000" stroke-linejoin="round"/>
</svg>
