<svg width="120.000000" height="120.000000" viewBox="0 0 120 120" fill="none" xmlns="http://www.w3.org/2000/svg" xmlns:xlink="http://www.w3.org/1999/xlink">
	<desc>
			Created with Pixso.
	</desc>
	<defs/>
	<circle id="Ellipse 5" cx="85.500000" cy="36.500000" r="30.500000" fill="#F84646" fill-opacity="1.000000"/>
	<path id="Vector" d="M41.2502 75C27.7882 75 16.8752 64.0869 16.8752 50.625C16.8752 37.1631 27.7882 26.25 41.2502 26.25C54.7121 26.25 65.6252 37.1631 65.6252 50.625C65.6252 64.0869 54.7121 75 41.2502 75Z" stroke="#000000" stroke-opacity="1.000000" stroke-width="2.000000"/>
	<path id="Vector" d="M72.8496 27.1582C76.2022 26.2136 79.7183 25.9983 83.1611 26.5271C86.6038 27.0559 89.8933 28.3162 92.808 30.2231C95.7226 32.1304 98.1948 34.6399 100.058 37.5828C101.921 40.5256 103.132 43.8337 103.609 47.2842C104.086 50.7344 103.818 54.2468 102.823 57.585C101.828 60.9229 100.13 64.009 97.8417 66.6353C95.5538 69.2617 92.7296 71.3672 89.5594 72.8101C86.3892 74.2529 82.9466 74.9998 79.4635 75.0002" stroke="#000000" stroke-opacity="1.000000" stroke-width="2.000000" stroke-linejoin="round" stroke-linecap="round"/>
	<path id="Vector" d="M7.49817 92.5298C11.305 87.1147 16.3589 82.6951 22.2331 79.644C28.1073 76.593 34.6293 75.0002 41.2486 75C47.8678 74.9998 54.39 76.592 60.2644 79.6426C66.1388 82.6931 71.193 87.1123 75.0003 92.5271" stroke="#000000" stroke-opacity="1.000000" stroke-width="2.000000" stroke-linejoin="round" stroke-linecap="round"/>
	<path id="Vector" d="M79.4635 75C86.0834 74.9951 92.6069 76.5857 98.4818 79.6365C104.357 82.6875 109.41 87.1091 113.214 92.5271" stroke="#000000" stroke-opacity="1.000000" stroke-width="2.000000" stroke-linejoin="round" stroke-linecap="round"/>
</svg>
